<svg width="400" height="300" viewBox="0 0 400 300" fill="none" xmlns="http://www.w3.org/2000/svg">
  <rect width="400" height="300" fill="#111111"/>
  <rect x="50" y="50" width="300" height="200" rx="10" fill="#222222"/>
  
  <!-- Grid representation -->
  <g transform="translate(80, 80)">
    <!-- Year clusters -->
    <rect x="0" y="0" width="40" height="40" rx="5" fill="#333333"/>
    <rect x="50" y="0" width="40" height="40" rx="5" fill="#333333"/>
    <rect x="100" y="0" width="40" height="40" rx="5" fill="#333333"/>
    <rect x="150" y="0" width="40" height="40" rx="5" fill="#333333"/>
    <rect x="200" y="0" width="40" height="40" rx="5" fill="#333333"/>
    
    <rect x="0" y="50" width="40" height="40" rx="5" fill="#333333"/>
    <rect x="50" y="50" width="40" height="40" rx="5" fill="#333333"/>
    <rect x="100" y="50" width="40" height="40" rx="5" fill="#333333"/>
    <rect x="150" y="50" width="40" height="40" rx="5" fill="#333333"/>
    <rect x="200" y="50" width="40" height="40" rx="5" fill="#333333"/>
    
    <rect x="0" y="100" width="40" height="40" rx="5" fill="#333333"/>
    <rect x="50" y="100" width="40" height="40" rx="5" fill="#333333"/>
    <rect x="100" y="100" width="40" height="40" rx="5" fill="#333333"/>
    <rect x="150" y="100" width="40" height="40" rx="5" fill="#333333"/>
    <rect x="200" y="100" width="40" height="40" rx="5" fill="#333333"/>
    
    <!-- Highlight current year -->
    <rect x="100" y="50" width="40" height="40" rx="5" fill="#007AFF" opacity="0.7"/>
  </g>
  
  <!-- Title -->
  <text x="200" y="40" font-family="Arial" font-size="24" fill="white" text-anchor="middle">1000 Months</text>
</svg> 